<svg version="1.1" xmlns="http://www.w3.org/2000/svg" xmlns:xlink="http://www.w3.org/1999/xlink" width="451.88636" height="179.12864" viewBox="0,0,451.88636,179.12864"><g transform="translate(-17.17726,-92.90384)"><g data-paper-data="{&quot;isPaintingLayer&quot;:true}" fill-rule="nonzero" stroke="none" stroke-width="0" stroke-linecap="butt" stroke-linejoin="miter" stroke-miterlimit="10" stroke-dasharray="" stroke-dashoffset="0" style="mix-blend-mode: normal"><path d="M441.93374,239.109c3.9616,-15.77047 12.58421,-26.73031 19.25915,-24.47949c6.67494,2.25082 8.87454,16.85996 4.91294,32.63044c-3.9616,15.77047 -12.58421,26.73031 -19.25915,24.47949c-6.67494,-2.25082 -8.87454,-16.85996 -4.91294,-32.63044z" data-paper-data="{&quot;index&quot;:null}" fill="none"/><path d="M447.83394,93.19687c6.67494,-2.25082 15.29755,8.70901 19.25915,24.47949c3.9616,15.77047 1.762,30.37962 -4.91294,32.63044c-6.67494,2.25082 -15.29755,-8.70901 -19.25915,-24.47949c-3.9616,-15.77047 -1.762,-30.37962 4.91294,-32.63044z" data-paper-data="{&quot;index&quot;:null}" fill="none"/><path d="M29.31163,109.92289c-1.83882,7.32002 -5.84109,12.40714 -8.93933,11.3624c-3.09824,-1.04474 -4.11921,-7.82573 -2.28039,-15.14575c1.83882,-7.32002 5.84109,-12.40714 8.93933,-11.3624c3.09824,1.04474 4.11921,7.82572 2.28039,15.14574z" data-paper-data="{&quot;index&quot;:null}" fill="none"/><path d="M31.28614,251.26636c1.83882,7.32002 0.81785,14.101 -2.28039,15.14574c-3.09824,1.04474 -7.10051,-4.04238 -8.93933,-11.3624c-1.83882,-7.32002 -0.81785,-14.10101 2.28039,-15.14575c3.09824,-1.04474 7.10051,4.04238 8.93933,11.3624z" data-paper-data="{&quot;index&quot;:null}" fill="none"/><path d="M203,194.5v-29h74v29z" fill="#000000"/></g></g></svg>