<svg version="1.1" xmlns="http://www.w3.org/2000/svg" xmlns:xlink="http://www.w3.org/1999/xlink" width="47.09035" height="49.343" viewBox="0,0,47.09035,49.343"><g transform="translate(-216.45482,-155.3285)"><g data-paper-data="{&quot;isPaintingLayer&quot;:true}" fill-rule="nonzero" stroke="#000000" stroke-width="1.5" stroke-linejoin="miter" stroke-miterlimit="10" stroke-dasharray="" stroke-dashoffset="0" style="mix-blend-mode: normal"><path d="M262.79517,161.2695v37.462c0,2.862 -2.327,5.19 -5.191,5.19h-35.20935c-2.861,0 -5.19,-2.328 -5.19,-5.19v-37.463c0,-2.862 2.329,-5.19 5.19,-5.19h35.20935c2.864,0 5.191,2.329 5.191,5.191z" fill="#ffffff" stroke-linecap="butt"/><path d="M257.3,180c0,2.65097 -7.74547,4.8 -17.3,4.8c-9.55453,0 -17.3,-2.14903 -17.3,-4.8c0,-2.65097 7.74547,-4.8 17.3,-4.8c9.55453,0 17.3,2.14903 17.3,4.8z" fill="none" stroke-linecap="butt"/><path d="M254.3,168.4l-28.6,23.2" fill="none" stroke-linecap="round"/><path d="M245.6,180c0,2.3196 -2.50721,4.2 -5.6,4.2c-3.09279,0 -5.6,-1.8804 -5.6,-4.2c0,-2.3196 2.50721,-4.2 5.6,-4.2c3.09279,0 5.6,1.8804 5.6,4.2z" fill="none" stroke-linecap="butt"/></g></g></svg>