<svg version="1.1" xmlns="http://www.w3.org/2000/svg" xmlns:xlink="http://www.w3.org/1999/xlink" width="474.46219" height="199.4019" viewBox="0,0,474.46219,199.4019"><defs><linearGradient x1="476.47989" y1="180.00001" x2="4.01893" y2="180.00001" gradientUnits="userSpaceOnUse" id="color-1"><stop offset="0" stop-color="#fffd00"/><stop offset="1" stop-color="#ffcc00"/></linearGradient><linearGradient x1="454.76023" y1="180.00001" x2="27.73859" y2="180.00001" gradientUnits="userSpaceOnUse" id="color-2"><stop offset="0" stop-color="#ffff1d"/><stop offset="1" stop-color="#ffd52d"/></linearGradient><linearGradient x1="290.79902" y1="268.22126" x2="268.65626" y2="268.22126" gradientUnits="userSpaceOnUse" id="color-3"><stop offset="0" stop-color="#ffea00"/><stop offset="1" stop-color="#ffe700"/></linearGradient><linearGradient x1="290.79902" y1="91.77876" x2="268.65626" y2="91.77876" gradientUnits="userSpaceOnUse" id="color-4"><stop offset="0" stop-color="#ffea00"/><stop offset="1" stop-color="#ffe700"/></linearGradient><radialGradient cx="455.29819" cy="120.2602" r="24.39935" gradientUnits="userSpaceOnUse" id="color-5"><stop offset="0" stop-color="#ffffff"/><stop offset="1" stop-color="#ffffff" stop-opacity="0"/></radialGradient><radialGradient cx="24.75968" cy="107.78268" r="4.79231" gradientUnits="userSpaceOnUse" id="color-6"><stop offset="0" stop-color="#ff0000"/><stop offset="1" stop-color="#ff0000" stop-opacity="0"/></radialGradient><radialGradient cx="33.52357" cy="99.97984" r="2.96177" gradientUnits="userSpaceOnUse" id="color-7"><stop offset="0" stop-color="#ffffff"/><stop offset="1" stop-color="#ffffff" stop-opacity="0"/></radialGradient><radialGradient cx="24.75968" cy="252.18948" r="4.79231" gradientUnits="userSpaceOnUse" id="color-8"><stop offset="0" stop-color="#ff0000"/><stop offset="1" stop-color="#ff0000" stop-opacity="0"/></radialGradient><radialGradient cx="33.52357" cy="259.99231" r="2.96177" gradientUnits="userSpaceOnUse" id="color-9"><stop offset="0" stop-color="#ffffff"/><stop offset="1" stop-color="#ffffff" stop-opacity="0"/></radialGradient><radialGradient cx="455.29819" cy="239.31584" r="24.39935" gradientUnits="userSpaceOnUse" id="color-10"><stop offset="0" stop-color="#ffffff"/><stop offset="1" stop-color="#ffffff" stop-opacity="0"/></radialGradient></defs><g transform="translate(-2.76769,-80.29906)"><g data-paper-data="{&quot;isPaintingLayer&quot;:true}" fill-rule="nonzero" stroke-linejoin="miter" stroke-miterlimit="10" stroke-dasharray="" stroke-dashoffset="0" style="mix-blend-mode: normal"><path d="M4.01893,179.56112l-0.5,-5.75157l0.5,-14.38847l0.71808,-13.03408l1.38804,-16.78337l1.58633,-9.67512l1.78462,-6.9108l3.37094,-5.33118l3.37094,-4.34394l4.95727,-3.55412l3.96582,-1.97451l7.33676,-1.77707l6.86062,-0.91044l10.74075,-2.30361l8.5926,-0.98726h12.22794l11.40615,-0.66543l15.03705,-1.1518l14.87181,-0.82272l15.29138,-0.25959l84.1331,0.36958l71.59248,0.20845l68.04396,0.53028l54.87541,0.25237l15.2023,0.98726l11.89745,2.30361l8.26212,2.13905l6.44445,1.97451l4.2963,2.79724l3.47009,2.79722l3.30485,3.4554l3.1396,4.93629l2.72478,4.66014l3.47009,10.69528l3.47009,11.35346l2.14815,9.04986l1.32194,9.04986l0.66097,7.73352l0.49573,7.53836v7.56898v1.3265v7.56897l-0.49573,7.53836l-0.66097,7.73352l-1.32194,9.04986l-2.14815,9.04986l-3.47009,11.35346l-3.47009,10.69528l-2.72478,4.66014l-3.1396,4.93629l-3.30485,3.4554l-3.47009,2.79723l-4.2963,2.79723l-6.44445,1.97451l-8.26212,2.13906l-11.89745,2.3036l-15.2023,0.98726l-54.87541,0.25237l-68.04396,0.53028l-71.59248,0.20844l-84.1331,0.36958l-15.29138,-0.25959l-14.87181,-0.82272l-15.03705,-1.1518l-11.40615,-0.66543h-12.22794l-8.5926,-0.98726l-10.74075,-2.3036l-6.86062,-0.91044l-7.33676,-1.77706l-3.96582,-1.97451l-4.95727,-3.55413l-3.37094,-4.34393l-3.37094,-5.33119l-1.78462,-6.9108l-1.58633,-9.67512l-1.38804,-16.78337l-0.71808,-13.03408l-0.5,-16.38847z" data-paper-data="{&quot;index&quot;:null}" fill="url(#color-1)" stroke="#000000" stroke-width="1.5" stroke-linecap="round"/><path d="M27.73859,179.60169v-3.40518v-14.87527l0.64902,-11.8306l1.25454,-15.2337l1.43376,-8.78178l1.61298,-6.2727l3.04674,-4.83894l3.04674,-3.94285l4.4805,-3.22596l3.5844,-1.7922l6.63114,-1.61299l6.20079,-0.82637l9.70775,-2.09091l7.7662,-0.8961h11.0519l10.30915,-0.60399l13.59085,-1.04545l13.4415,-0.74675l13.82072,-0.23562l76.04153,0.33546l64.70701,0.1892l61.49978,0.48131l49.59772,0.22907l13.74021,0.8961l10.75321,2.09091l7.4675,1.94154l5.82465,1.7922l3.88309,2.53895l3.13635,2.53894l2.987,3.13635l2.83765,4.4805l2.46273,4.22985l3.13635,9.70775l3.13635,10.30515l1.94155,8.21426l1.1948,8.21425l0.5974,7.01945l0.44805,6.84232v6.87011v1.20402v6.87011l-0.44805,6.84232l-0.5974,7.01945l-1.1948,8.21425l-1.94155,8.21426l-3.13635,10.30515l-3.13635,9.70775l-2.46273,4.22985l-2.83765,4.4805l-2.987,3.13635l-3.13635,2.53895l-3.88309,2.53895l-5.82465,1.7922l-7.4675,1.94155l-10.75321,2.0909l-13.74021,0.8961l-49.59772,0.22907l-61.49978,0.48131l-64.70701,0.1892l-76.04153,0.33546l-13.82072,-0.23562l-13.4415,-0.74675l-13.59085,-1.04545l-10.30915,-0.60399h-11.0519l-7.7662,-0.8961l-9.70775,-2.0909l-6.20079,-0.82638l-6.63114,-1.61298l-3.5844,-1.7922l-4.4805,-3.22596l-3.04674,-3.94284l-3.04674,-4.83895l-1.61298,-6.2727l-1.43376,-8.78178l-1.25454,-15.2337l-0.64902,-11.8306v-14.87527v-3.40518z" data-paper-data="{&quot;index&quot;:null}" fill="url(#color-2)" stroke="none" stroke-width="0" stroke-linecap="round"/><g data-paper-data="{&quot;index&quot;:null}" stroke-linecap="round"><path d="M212.12114,261.60445h-9.08277l-47.78325,-1.57961l-40.08264,-0.59235l7.70061,-5.13374l8.17162,-3.46204l15.00631,-4.73883l9.87257,-2.76432l10.85983,-1.77706l14.61141,-0.78981l29.39335,0.48698l19.74514,0.19745l18.95534,3.15922l23.89162,6.12099l20.14005,6.5159l8.49041,3.15922l0.90451,1.18929z" fill="#1d1d1d" stroke="#000000" stroke-width="1.5"/><path d="M163.87051,244.09436l4.34393,-0.59235l4.34393,-0.3949l4.1801,-0.21201l1.77707,13.4267l-33.96165,-0.19745h-15.09975l-1.77706,-0.3949l0.12407,-0.82484l2.07324,-1.28343l9.37894,-3.15922l9.9713,-2.96177l10.66237,-2.66559z" fill="#090909" stroke="#000000" stroke-width="1.5"/><path d="M200.65139,243.00592l21.32475,0.3949l8.13997,0.28517l10.3662,1.57961l9.37894,1.67834l10.56365,2.56687l11.35346,2.96177l2.27069,0.78981l0.69108,0.59235v4.83757l-38.11255,0.21279l-20.20877,-0.02635l-14.41395,0.09873l-12.53817,0.09873l-1.87579,-0.29618l-0.69108,-0.59235l-1.08599,-15.40121z" fill="#090909" stroke="#000000" stroke-width="1.5"/><path d="M194.44774,268.86689l11.56502,-0.14103l0.98726,0.28207" fill="none" stroke="#858585" stroke-width="1.5"/><path d="M24.89435,248.87571c0,0 0.9224,0.86234 0.98221,1.281c0.0769,0.53824 0.26362,1.84532 0.26362,1.84532c0,0 0.30098,0.63407 0.44556,0.89913c0.1371,0.25134 0.40066,0.65227 0.40066,0.65227l1.83347,1.69244l2.82074,2.25659l4.37214,2.82074l1.41037,0.98726l0.03526,1.61017c0,0 0.1814,0.12128 -0.15659,0.03412c-0.26907,-0.06937 -1.71215,-0.516 -1.71215,-0.516l-4.09007,-1.97451l-5.07732,-2.82073l-3.10281,-3.38489l-2.11555,-3.38488l-0.98726,-2.39762c0,0 -0.51426,-1.83517 -0.49022,-2.24395c0.02291,-0.3895 0.63126,-0.15368 0.63126,-0.15368l4.53668,2.79723z" fill="#434343" stroke="#0c0c0c" stroke-width="1.5"/><path d="M147.23268,237.62254l8.49041,-0.78981l10.20389,-0.53098l29.42026,-0.59235l24.87888,0.59235l14.41395,0.98726l12.04454,0.98726l5.33119,0.59235" fill="none" stroke="#000000" stroke-width="1.5"/><path d="M446.33563,248.928l-14.80886,1.31634l-21.71966,1.97451l-15.13794,0.32908h-72.89249l26.4914,-4.27811l56.27366,-15.79611l43.11023,-14.47978l12.50526,-4.6072" fill="none" stroke="#000000" stroke-width="1.5"/><path d="M438.98398,260.04989l-7.23988,2.63268l-6.9108,2.3036l-6.25263,0.98726l-32.2504,0.32909l-117.4836,0.98726l-70.07315,-0.4017l-55.44368,0.19745l-42.14518,-0.92128l-30.975,-1.77706l-19.54769,-1.38216l-6.9108,-1.57961l-7.89806,-2.96177l-4.93629,-4.34394l-1.77706,-4.73883" fill="none" stroke="#000000" stroke-width="1.5"/><path d="M303.72974,261.69531l6.25263,2.63269l3.29086,2.63268l1.97451,1.97451" fill="none" stroke="#000000" stroke-width="1.5"/><path d="M286.14481,257.78454l1.69244,-0.28207l1.83348,0.42311l1.12829,0.98726v1.41037l-2.25659,3.10281l-3.24384,4.65421l-3.52592,4.09007l-4.93629,4.2311l-2.6797,1.97451l-2.96177,0.56414l-1.83348,-0.28207l-0.70518,-0.98726l0.14103,-1.69245l1.41037,-1.5514l7.75702,-9.16739l3.38489,-5.07733l1.5514,-1.26933l1.69244,-0.14103l0.98726,0.56415l0.98726,1.41037l1.55141,2.53866l-2.82073,-4.09007z" fill="url(#color-3)" stroke="#000000" stroke-width="1.5"/><path d="M116.06775,259.64833l-34.40591,-0.3949l-26.85339,-1.77706l-18.95534,-2.56687l-5.33119,-1.97451" fill="none" stroke="#000000" stroke-width="1.5"/><path d="M88.12837,247.85063l-24.43461,-0.64172l-10.22066,-1.1399" fill="none" stroke="#000000" stroke-width="1.5"/><path d="M38.66424,238.17095l5.52864,0.19745l5.33119,1.97451l7.89806,5.13374l-5.13374,0.3949l-7.10825,-0.98726l-7.3057,-2.17197" fill="none" stroke="#000000" stroke-width="1.5"/><path d="M54.06546,243.89703l-2.17197,-0.19745l-8.49041,-1.97451l-5.13374,-1.77706" fill="none" stroke="#000000" stroke-width="1.5"/><path d="M65.12273,248.04352l-2.56687,1.38216l-5.33119,0.59235l-30.60497,-0.98726l-7.10825,-5.06348" fill="none" stroke="#000000" stroke-width="1.5"/><path d="M347.97922,216.21209h2.96177" fill="none" stroke="#000000" stroke-width="1.5"/><path d="M28.72585,256.33777l-1.43975,0.61704l-1.85111,-1.60429l-1.50146,-1.56316l-1.60429,-2.96177l-1.48089,-3.4554l3.33199,2.22133l0.74044,0.86385l0.24681,1.11066l0.24681,1.23407l0.86385,1.48089z" fill="#d30000" stroke="#d30000" stroke-width="0.5"/><path d="M36.51276,261.75474l-5.92354,-2.96177l0.61704,-0.61704z" fill="#d4d4d4" stroke="#d4d4d4" stroke-width="0.5"/><path d="M259.53269,179.63697l-0.19745,-11.84709l-0.3949,-9.28022l-1.57961,-13.22925l-2.17197,-12.24199l-2.17197,-12.24199l3.06945,-1.34932l15.79611,-5.13374l15.59866,-4.93629l14.55112,-4.73931l4.73883,-1.18471l3.55413,0.19745l7.10825,1.57961l3.94903,1.57961l2.96177,3.15922l2.17197,6.9108l2.96177,15.00631l2.36942,13.62415l1.38216,17.96808l0.69772,15.874v1.29539l-0.69772,15.874l-1.38216,17.96808l-2.36942,13.62415l-2.96177,15.00631l-2.17197,6.9108l-2.96177,3.15922l-3.94903,1.57961l-7.10825,1.57961l-3.55413,0.19745l-4.73883,-1.18471l-14.55112,-4.73931l-15.59866,-4.93629l-15.79611,-5.13374l-3.06945,-1.34932l2.17197,-12.24199l2.17197,-12.24199l1.57961,-13.22925l0.3949,-9.28022l0.19745,-11.84709" data-paper-data="{&quot;index&quot;:null}" fill="#1d1d1d" stroke="#000000" stroke-width="1.5"/><path d="M263.33475,179.12836l-0.3949,-15.79611l-0.3949,-8.88531l-0.98726,-11.25473l-3.75158,-20.14005l0.19745,-1.18471l1.57961,-0.98726l36.72597,-11.05728l7.3057,-1.97451l4.73883,-0.19745l7.10825,0.78981l2.36942,1.38216l1.18471,1.57961l1.38216,4.14648l2.36942,8.29296l1.38216,9.67512l2.17197,11.45218l0.98726,12.04454l0.3949,8.88531l0.59235,13.8216v0.5586l-0.59235,13.8216l-0.3949,8.88531l-0.98726,12.04454l-2.17197,11.45218l-1.38216,9.67512l-2.36942,8.29296l-1.38216,4.14648l-1.18471,1.57961l-2.36942,1.38216l-7.10825,0.78981l-4.73883,-0.19746l-7.3057,-1.97451l-36.72597,-11.05728l-1.57961,-0.98726l-0.19745,-1.18471l3.75158,-20.14005l0.98726,-11.25473l0.3949,-8.88531l0.3949,-15.79611z" data-paper-data="{&quot;index&quot;:null}" fill="#090909" stroke="#000000" stroke-width="1.5"/><path d="M302.91526,98.40427l-0.90451,1.18929l-8.49041,3.15922l-20.14005,6.5159l-23.89162,6.12099l-18.95534,3.15922l-19.74514,0.19745l-29.39335,0.48698l-14.61141,-0.78981l-10.85983,-1.77706l-9.87257,-2.76432l-15.00631,-4.73883l-8.17162,-3.46204l-7.70061,-5.13374l40.08264,-0.59235l47.78325,-1.57961h9.08277z" data-paper-data="{&quot;index&quot;:null}" fill="#1d1d1d" stroke="#000000" stroke-width="1.5"/><path d="M159.88699,115.16539l-10.66237,-2.66559l-9.9713,-2.96177l-9.37894,-3.15922l-2.07324,-1.28343l-0.12407,-0.82484l1.77706,-0.3949h15.09975l33.96165,-0.19745l-1.77707,13.4267l-4.1801,-0.21201l-4.34393,-0.3949l-4.34393,-0.59235z" data-paper-data="{&quot;index&quot;:null}" fill="#090909" stroke="#000000" stroke-width="1.5"/><path d="M185.81382,117.21356l1.08599,-15.40121l0.69108,-0.59235l1.87579,-0.29618l12.53817,0.09873l14.41395,0.09873l20.20877,-0.02635l38.11255,0.21279v4.83756l-0.69108,0.59235l-2.27069,0.78981l-11.35346,2.96177l-10.56365,2.56687l-9.37894,1.67834l-10.3662,1.57961l-8.13997,0.28517l-21.32475,0.3949z" data-paper-data="{&quot;index&quot;:null}" fill="#090909" stroke="#000000" stroke-width="1.5"/><path d="M66.09004,178.8714l0.24681,-7.89806l1.97451,-12.58753l3.4554,-15.05567l2.96177,-10.3662l5.42991,-11.10664l5.92354,-7.65124l5.1831,-4.19584l3.94903,-1.48089l5.67673,-1.23407h5.42991l4.68947,0.74044l15.05567,4.44266l17.277,6.66399l2.22133,1.7277l0.74044,2.22133l-0.49363,19.99196l-0.49363,35.78807v2.25718l0.49363,35.78807l0.49363,19.99196l-0.74044,2.22133l-2.22133,1.7277l-17.277,6.66399l-15.05567,4.44265l-4.68947,0.74044h-5.42991l-5.67673,-1.23407l-3.94903,-1.48088l-5.1831,-4.19584l-5.92354,-7.65124l-5.42991,-11.10664l-2.96177,-10.3662l-3.4554,-15.05567l-1.97451,-12.58753l-0.24681,-7.89806z" data-paper-data="{&quot;index&quot;:null}" fill="#1d1d1d" stroke="#000000" stroke-width="1.5"/><path d="M74.72853,179.61186l0.24681,-7.15761l0.98726,-11.84709l2.46814,-11.84709l1.97451,-9.87257l4.68947,-11.35346l3.70221,-5.1831l4.68947,-4.19584l6.17036,-3.70221l4.68947,-0.98726l3.94903,0.98726l15.5493,4.93629l13.32797,5.42991l3.70221,1.48089l1.7277,1.97451l0.74044,2.46814l-0.24681,9.13213l-0.74044,20.7324l-0.24681,18.26426v2.25718l0.24681,18.26426l0.74044,20.7324l0.24681,9.13213l-0.74044,2.46814l-1.7277,1.97451l-3.70221,1.48089l-13.32797,5.42991l-15.5493,4.93629l-3.94903,0.98726l-4.68947,-0.98726l-6.17036,-3.70221l-4.68947,-4.19584l-3.70221,-5.1831l-4.68947,-11.35346l-1.97451,-9.87257l-2.46814,-11.84709l-0.98726,-11.84709l-0.24681,-7.15761z" data-paper-data="{&quot;index&quot;:null}" fill="#090909" stroke="#000000" stroke-width="1.5"/><path d="M464.90546,147.55407l-3.10281,0.45837l-0.49363,-3.70221l-2.71496,-9.13213l-2.96177,-9.37894l-3.70221,-8.39169l-3.94903,-6.9108l-5.67673,-7.40443l-2.53866,-2.36236c0,0 -0.37097,-0.56178 0.00255,-0.76929c0.3668,-0.20377 1.79567,-0.74686 1.79567,-0.74686c0,0 1.31947,0.2706 1.97944,0.54703c0.6603,0.27657 1.98135,1.53509 1.98135,1.53509l4.2311,5.07733l3.10281,5.21836l4.79525,9.16738l2.6797,7.05183l2.6797,9.02635l1.69244,7.61598c0,0 0.06582,1.02157 0.09896,1.53595c0.03345,0.51923 0.10083,1.56504 0.10083,1.56504z" data-paper-data="{&quot;index&quot;:null}" fill="#e0e0e0" stroke="#050505" stroke-width="1.5"/><path d="M207.00003,90.99209l-0.98726,0.28207l-11.56502,-0.14103" data-paper-data="{&quot;index&quot;:null}" fill="none" stroke="#858585" stroke-width="1.5"/><path d="M25.87656,109.84328c-0.05981,0.41866 -0.98221,1.281 -0.98221,1.281l-4.53668,2.79723c0,0 -0.60835,0.23582 -0.63126,-0.15368c-0.02405,-0.40878 0.49022,-2.24395 0.49022,-2.24395l0.98726,-2.39762l2.11555,-3.38488l3.10281,-3.38489l5.07732,-2.82073l4.09007,-1.97451c0,0 1.44309,-0.44662 1.71215,-0.516c0.33799,-0.08715 0.15659,0.03413 0.15659,0.03413l-0.03526,1.61017l-1.41037,0.98726l-4.37214,2.82074l-2.82074,2.25659l-1.83347,1.69244c0,0 -0.26356,0.40092 -0.40066,0.65227c-0.14458,0.26505 -0.44556,0.89913 -0.44556,0.89913c0,0 -0.18673,1.30708 -0.26362,1.84532z" data-paper-data="{&quot;index&quot;:null}" fill="#434343" stroke="#0c0c0c" stroke-width="1.5"/><path d="M464.56698,179.49684v-3.55413l-0.19745,-7.89806l-0.3949,-7.50315l-0.98726,-4.93629l-0.98726,-6.5159l3.15922,-0.3949l1.57961,7.50315l0.98726,9.28022l0.59235,8.29296l-0.19745,5.52864v1.40128l0.19745,5.52864l-0.59235,8.29296l-0.98726,9.28022l-1.57961,7.50315l-3.15922,-0.3949l0.98726,-6.5159l0.98726,-4.93629l0.3949,-7.50315l0.19745,-7.89806v-3.55413z" data-paper-data="{&quot;index&quot;:null}" fill="#090909" stroke="#000000" stroke-width="1.5"/><path d="M252.0158,121.13141l-5.33119,0.59235l-12.04454,0.98726l-14.41395,0.98726l-24.87888,0.59235l-29.42026,-0.59235l-10.20389,-0.53098l-8.49041,-0.78981" data-paper-data="{&quot;index&quot;:null}" fill="none" stroke="#000000" stroke-width="1.5"/><path d="M460.15725,146.6133l-12.50526,-4.60719l-43.11023,-14.47978l-56.27366,-15.79612l-26.24459,-4.52492l72.64567,0.24681l15.13794,0.32908l21.71966,1.97451l14.80886,1.31635" data-paper-data="{&quot;index&quot;:null}" fill="none" stroke="#000000" stroke-width="1.5"/><path d="M29.13976,110.61914l1.77706,-4.73883l4.93629,-4.34393l7.89806,-2.96177l6.9108,-1.57961l19.54769,-1.38216l30.975,-1.77706l42.14518,-0.92128l55.44368,0.19745l70.07315,-0.4017l117.4836,0.98726l32.2504,0.32909l6.25263,0.98726l6.9108,2.3036l7.23988,2.63268" data-paper-data="{&quot;index&quot;:null}" fill="none" stroke="#000000" stroke-width="1.5"/><path d="M315.24775,91.06483l-1.97451,1.97451l-3.29086,2.63268l-6.25263,2.63269" data-paper-data="{&quot;index&quot;:null}" fill="none" stroke="#000000" stroke-width="1.5"/><path d="M285.29859,100.80511l2.82073,-4.09007l-1.55141,2.53866l-0.98726,1.41037l-0.98726,0.56415l-1.69244,-0.14103l-1.5514,-1.26933l-3.38489,-5.07733l-7.75702,-9.16739l-1.41037,-1.5514l-0.14103,-1.69244l0.70518,-0.98726l1.83348,-0.28207l2.96177,0.56414l2.6797,1.97451l4.93629,4.2311l3.52592,4.09007l3.24384,4.65421l2.25659,3.10281v1.41037l-1.12829,0.98726l-1.83348,0.42311l-1.69244,-0.28207z" data-paper-data="{&quot;index&quot;:null}" fill="url(#color-4)" stroke="#000000" stroke-width="1.5"/><path d="M30.52192,107.06502l5.33119,-1.97451l18.95534,-2.56687l26.85339,-1.77706l33.66547,-0.3949" data-paper-data="{&quot;index&quot;:null}" fill="none" stroke="#000000" stroke-width="1.5"/><path d="M53.4731,113.93102l10.22066,-1.1399l24.68143,-0.64172" data-paper-data="{&quot;index&quot;:null}" fill="none" stroke="#000000" stroke-width="1.5"/><path d="M14.18026,178.65715l0.19745,-13.4267l0.78981,-16.58592l1.18471,-16.38847l1.77706,-9.87257l1.38216,-5.72609l18.36298,0.3949l-1.38216,13.4267l-1.38216,15.59866l-0.78981,18.16553v15.20376v1.10614v15.20376l0.78981,18.16553l1.38216,15.59866l1.38216,13.4267l-18.36298,0.3949l-1.38216,-5.72609l-1.77706,-9.87257l-1.18471,-16.38847l-0.78981,-16.58592l-0.19745,-13.4267z" data-paper-data="{&quot;index&quot;:null}" fill="none" stroke="#000000" stroke-width="1.5"/><path d="M37.87444,117.28771l7.3057,-2.17197l7.10825,-0.98726l5.13374,0.3949l-7.89806,5.13374l-5.33119,1.97451l-5.52864,0.19745" data-paper-data="{&quot;index&quot;:null}" fill="none" stroke="#000000" stroke-width="1.5"/><path d="M38.26933,120.052l5.13374,-1.77706l8.49041,-1.97451l2.17197,-0.19745" data-paper-data="{&quot;index&quot;:null}" fill="none" stroke="#000000" stroke-width="1.5"/><path d="M19.51144,116.03273l7.10825,-5.06348l30.60497,-0.98726l5.33119,0.59235l2.56687,1.38216" data-paper-data="{&quot;index&quot;:null}" fill="none" stroke="#000000" stroke-width="1.5"/><path d="M347.97921,143.78793h2.96177" data-paper-data="{&quot;index&quot;:null}" fill="none" stroke="#000000" stroke-width="1.5"/><path d="M451.84573,111.54502l-1.77706,0.19745" data-paper-data="{&quot;index&quot;:null}" fill="none" stroke="#050505" stroke-width="1.5"/><path d="M450.26612,108.3858l-2.36942,0.78981" data-paper-data="{&quot;index&quot;:null}" fill="none" stroke="#050505" stroke-width="1.5"/><path d="M456.78202,126.55133h2.56687" data-paper-data="{&quot;index&quot;:null}" fill="none" stroke="#050505" stroke-width="1.5"/><path d="M454.0177,114.5068l-1.97451,1.18471" data-paper-data="{&quot;index&quot;:null}" fill="none" stroke="#050505" stroke-width="1.5"/><path d="M462.1132,143.72961l2.17197,-0.3949" data-paper-data="{&quot;index&quot;:null}" fill="none" stroke="#050505" stroke-width="1.5"/><path d="M26.27825,105.71903l-0.86385,1.48089l-0.24681,1.23407l-0.24681,1.11066l-0.74044,0.86385l-3.33199,2.22133l1.48089,-3.4554l1.60429,-2.96177l1.50146,-1.56316l1.85111,-1.60429l1.43975,0.61704z" data-paper-data="{&quot;index&quot;:null}" fill="#d30000" stroke="#d30000" stroke-width="0.5"/><path d="M31.20627,101.82409l-0.61704,-0.61704l5.92354,-2.96177z" data-paper-data="{&quot;index&quot;:null}" fill="#d4d4d4" stroke="#d4d4d4" stroke-width="0.5"/><path d="M464.80464,213.78445c-0.03314,0.51439 -0.09896,1.53595 -0.09896,1.53595l-1.69244,7.61598l-2.6797,9.02635l-2.6797,7.05183l-4.79525,9.16738l-3.10281,5.21836l-4.2311,5.07733c0,0 -1.32106,1.25852 -1.98135,1.53509c-0.65998,0.27643 -1.97944,0.54703 -1.97944,0.54703c0,0 -1.42887,-0.54309 -1.79567,-0.74686c-0.37352,-0.20752 -0.00255,-0.76929 -0.00255,-0.76929l2.53866,-2.36236l5.67673,-7.40443l3.94903,-6.9108l3.70221,-8.39169l2.96177,-9.37894l2.71496,-9.13213l0.49363,-3.70221l3.10281,0.45837c0,0 -0.06738,1.04581 -0.10083,1.56504z" data-paper-data="{&quot;index&quot;:null}" fill="#e0e0e0" stroke="#050505" stroke-width="1.5"/><path d="M450.06867,248.03101l1.77706,0.19745" data-paper-data="{&quot;index&quot;:null}" fill="none" stroke="#050505" stroke-width="1.5"/><path d="M450.26612,251.38769l-2.36942,-0.78981" data-paper-data="{&quot;index&quot;:null}" fill="none" stroke="#050505" stroke-width="1.5"/><path d="M456.78202,233.22215h2.56687" data-paper-data="{&quot;index&quot;:null}" fill="none" stroke="#050505" stroke-width="1.5"/><path d="M454.0177,245.26669l-1.97451,-1.18471" data-paper-data="{&quot;index&quot;:null}" fill="none" stroke="#050505" stroke-width="1.5"/><path d="M464.28517,216.43878l-2.17197,-0.3949" data-paper-data="{&quot;index&quot;:null}" fill="none" stroke="#050505" stroke-width="1.5"/><g stroke="#050505" stroke-width="1.5"><path d="M465.00419,147.45534l-3.10281,0.45837l-0.49363,-3.70221l-2.71496,-9.13213l-2.96177,-9.37894l-3.70221,-8.39169l-3.94903,-6.9108l-5.67673,-7.40443l-2.53866,-2.36236c0,0 -0.37097,-0.56178 0.00255,-0.76929c0.3668,-0.20377 1.79567,-0.74686 1.79567,-0.74686c0,0 1.31947,0.2706 1.97944,0.54703c0.6603,0.27657 1.98135,1.53509 1.98135,1.53509l4.2311,5.07733l3.10281,5.21836l4.79525,9.16738l2.6797,7.05183l2.6797,9.02635l1.69244,7.61598c0,0 0.06582,1.02157 0.09896,1.53595c0.03345,0.51923 0.10083,1.56504 0.10083,1.56504z" data-paper-data="{&quot;index&quot;:null}" fill="url(#color-5)"/><path d="M450.1674,111.64375l1.77706,-0.19745" data-paper-data="{&quot;index&quot;:null}" fill="none"/><path d="M447.99543,109.07689l2.36942,-0.78981" data-paper-data="{&quot;index&quot;:null}" fill="none"/><path d="M459.44761,126.45261h-2.56687" data-paper-data="{&quot;index&quot;:null}" fill="none"/><path d="M454.11642,114.40807l-1.97451,1.18471" data-paper-data="{&quot;index&quot;:null}" fill="none"/><path d="M464.38391,143.23598l-2.17197,0.3949" data-paper-data="{&quot;index&quot;:null}" fill="none"/></g><g><path d="M25.84914,109.78844c-0.05981,0.41866 -0.98221,1.281 -0.98221,1.281l-4.53668,2.79723c0,0 -0.60835,0.23582 -0.63126,-0.15368c-0.02405,-0.40878 0.49022,-2.24395 0.49022,-2.24395l0.98726,-2.39762l2.11555,-3.38488l3.10281,-3.38489l5.07732,-2.82073l4.09007,-1.97451c0,0 1.44309,-0.44662 1.71215,-0.516c0.33799,-0.08715 0.15659,0.03413 0.15659,0.03413l-0.03526,1.61017l-1.41037,0.98726l-4.37214,2.82074l-2.82074,2.25659l-1.83347,1.69244c0,0 -0.26356,0.40092 -0.40066,0.65227c-0.14458,0.26505 -0.44556,0.89913 -0.44556,0.89913c0,0 -0.18673,1.30708 -0.26362,1.84532z" data-paper-data="{&quot;index&quot;:null}" fill="none" stroke="#0c0c0c" stroke-width="1.5"/><path d="M26.25083,105.66418l-0.86385,1.48089l-0.24681,1.23407l-0.24681,1.11066l-0.74044,0.86385l-3.33199,2.22133l1.48089,-3.4554l1.60429,-2.96177l1.50146,-1.56316l1.85111,-1.60429l1.43975,0.61704z" data-paper-data="{&quot;index&quot;:null}" fill="url(#color-6)" stroke="none" stroke-width="0"/><path d="M31.17884,101.76925l-0.61704,-0.61704l5.92354,-2.96177z" data-paper-data="{&quot;index&quot;:null}" fill="url(#color-7)" stroke="none" stroke-width="0"/></g><g data-paper-data="{&quot;index&quot;:null}"><path d="M24.86693,248.90268c0,0 0.9224,0.86234 0.98221,1.281c0.0769,0.53824 0.26362,1.84532 0.26362,1.84532c0,0 0.30098,0.63407 0.44556,0.89913c0.1371,0.25134 0.40066,0.65227 0.40066,0.65227l1.83347,1.69244l2.82074,2.25659l4.37214,2.82074l1.41037,0.98726l0.03526,1.61017c0,0 0.1814,0.12129 -0.15659,0.03413c-0.26907,-0.06937 -1.71215,-0.516 -1.71215,-0.516l-4.09007,-1.97451l-5.07732,-2.82073l-3.10281,-3.38489l-2.11555,-3.38488l-0.98726,-2.39762c0,0 -0.51426,-1.83517 -0.49022,-2.24395c0.02291,-0.3895 0.63126,-0.15368 0.63126,-0.15368l4.53668,2.79723z" data-paper-data="{&quot;index&quot;:null}" fill="none" stroke="#0c0c0c" stroke-width="1.5"/><path d="M28.69845,256.36474l-1.43975,0.61704l-1.85111,-1.60429l-1.50146,-1.56316l-1.60429,-2.96177l-1.48089,-3.4554l3.33199,2.22133l0.74044,0.86385l0.24681,1.11066l0.24681,1.23407l0.86385,1.48089z" data-paper-data="{&quot;index&quot;:null}" fill="url(#color-8)" stroke="none" stroke-width="0"/><path d="M36.48534,261.78172l-5.92354,-2.96177l0.61704,-0.61704z" data-paper-data="{&quot;index&quot;:null}" fill="url(#color-9)" stroke="none" stroke-width="0"/></g><g data-paper-data="{&quot;index&quot;:null}" stroke="#050505" stroke-width="1.5"><path d="M464.90336,213.68573c-0.03314,0.51439 -0.09896,1.53595 -0.09896,1.53595l-1.69244,7.61598l-2.6797,9.02635l-2.6797,7.05183l-4.79525,9.16738l-3.10281,5.21836l-4.2311,5.07733c0,0 -1.32106,1.25852 -1.98135,1.53509c-0.65998,0.27643 -1.97944,0.54703 -1.97944,0.54703c0,0 -1.42887,-0.54309 -1.79567,-0.74686c-0.37352,-0.20752 -0.00255,-0.76929 -0.00255,-0.76929l2.53866,-2.36236l5.67673,-7.40443l3.94903,-6.9108l3.70221,-8.39169l2.96177,-9.37894l2.71496,-9.13213l0.49363,-3.70221l3.10281,0.45837c0,0 -0.06738,1.04581 -0.10083,1.56504z" data-paper-data="{&quot;index&quot;:null}" fill="url(#color-10)"/><path d="M451.94446,248.12973l-1.77706,-0.19745" data-paper-data="{&quot;index&quot;:null}" fill="none"/><path d="M447.99543,250.49915l2.36942,0.78981" data-paper-data="{&quot;index&quot;:null}" fill="none"/><path d="M456.88074,233.12342h2.56687" data-paper-data="{&quot;index&quot;:null}" fill="none"/><path d="M452.14191,243.98325l1.97451,1.18471" data-paper-data="{&quot;index&quot;:null}" fill="none"/><path d="M464.3839,216.34005l-2.17197,-0.3949" data-paper-data="{&quot;index&quot;:null}" fill="none"/></g></g><path d="M441.93374,239.109c3.9616,-15.77047 12.58421,-26.73031 19.25915,-24.47949c6.67494,2.25082 8.87454,16.85996 4.91294,32.63044c-3.9616,15.77047 -12.58421,26.73031 -19.25915,24.47949c-6.67494,-2.25082 -8.87454,-16.85996 -4.91294,-32.63044z" data-paper-data="{&quot;index&quot;:null}" fill="none" stroke="none" stroke-width="0" stroke-linecap="butt"/><path d="M447.83394,93.19687c6.67494,-2.25082 15.29755,8.70901 19.25915,24.47949c3.9616,15.77047 1.762,30.37962 -4.91294,32.63044c-6.67494,2.25082 -15.29755,-8.70901 -19.25915,-24.47949c-3.9616,-15.77047 -1.762,-30.37962 4.91294,-32.63044z" data-paper-data="{&quot;index&quot;:null}" fill="none" stroke="none" stroke-width="0" stroke-linecap="butt"/><path d="M29.31163,109.92289c-1.83882,7.32002 -5.84109,12.40714 -8.93933,11.3624c-3.09824,-1.04474 -4.11921,-7.82573 -2.28039,-15.14575c1.83882,-7.32002 5.84109,-12.40714 8.93933,-11.3624c3.09824,1.04474 4.11921,7.82572 2.28039,15.14574z" data-paper-data="{&quot;index&quot;:null}" fill="none" stroke="none" stroke-width="0" stroke-linecap="butt"/><path d="M31.28614,251.26636c1.83882,7.32002 0.81785,14.101 -2.28039,15.14574c-3.09824,1.04474 -7.10051,-4.04238 -8.93933,-11.3624c-1.83882,-7.32002 -0.81785,-14.10101 2.28039,-15.14575c3.09824,-1.04474 7.10051,4.04238 8.93933,11.3624z" data-paper-data="{&quot;index&quot;:null}" fill="none" stroke="none" stroke-width="0" stroke-linecap="butt"/></g></g></svg>