<svg version="1.1" xmlns="http://www.w3.org/2000/svg" xmlns:xlink="http://www.w3.org/1999/xlink" width="640.03004" height="489.12864" viewBox="0,0,640.03004,489.12864"><g transform="translate(80.01502,64.56432)"><g data-paper-data="{&quot;isPaintingLayer&quot;:true}" fill-rule="nonzero" stroke-linejoin="miter" stroke-miterlimit="10" stroke-dasharray="" stroke-dashoffset="0" style="mix-blend-mode: normal"><path d="M-80.01502,424.56432v-489.12864h640.03004v489.12864z" fill="#00ff03" stroke="none" stroke-width="0" stroke-linecap="butt"/><g><path d="M218.86573,264.7932l-0.32654,-47.28854l135.79581,3.55832c0,0 -6.23221,-12.82318 -21.71668,-12.85324c-47.13138,-0.09149 -231.00213,-0.45909 -231.00213,-0.45909c0,0 -82.18418,-55.21268 -97.41702,-76.33734c-0.77712,-1.0777 -5.19001,-13.79104 -3.46928,-26.34434c1.6179,-11.80316 9.35393,-23.5228 9.35393,-23.5228l72.90314,-64.18741c0,0 18.26781,-7.58648 26.81235,-7.0978c32.77584,1.87452 31.09864,17.36489 53.31719,35.09752c20.74165,16.55392 99.58975,93.4646 112.73052,93.89483c5.71283,0.18704 22.89634,-9.67355 22.89634,-9.67355c0,0 43.01824,-5.2139 61.28704,-7.42812c5.13175,-0.62198 12.74098,1.13545 20.48757,3.69441c10.88808,3.59671 46.66523,87.10598 64.00594,128.9674c2.72469,6.57755 15.82305,12.64962 23.27708,21.59903c3.95295,4.74597 9.89308,14.91526 11.39862,27.12038c1.36365,11.05485 -0.03883,30.30153 -7.30172,39.84452c-2.61984,3.44231 -12.24177,5.2289 -22.74137,6.13702c-5.84393,0.50545 -9.49694,2.04834 -43.55431,-17.9414c-13.87653,-8.14474 -26.76073,-54.34471 -26.76073,-54.34471l-4.74749,-14.50525l-10.60813,-4.42492l-1.51782,-13.56397l0.07662,26.08774l-143.34557,-4.44535" fill="#848484" stroke="#000000" stroke-width="2.5" stroke-linecap="round"/><path d="M117.7824,177.30743c0,0 -3.06536,-2.12695 -3.87525,-4.83812c-1.0027,-3.35658 0.20859,-7.60864 0.20859,-9.82855c0,-3.46044 3.66666,-8 3.66666,-8l7.49009,0.40721l30.54425,11.98943l38.96566,-0.0633l0.66667,9.66667z" fill="#00ff03" stroke="none" stroke-width="0" stroke-linecap="butt"/><path d="M84.5324,166.30743l3,-6.66667l9.66667,5l0.33333,6.66667z" fill="#00ff03" stroke="none" stroke-width="0" stroke-linecap="butt"/><path d="M50.86573,114.80743c0,7.82403 -6.79035,14.16666 -15.16667,14.16666c-8.37632,0 -15.16667,-6.34263 -15.16667,-14.16666c0,-7.82403 6.79035,-14.16667 15.16667,-14.16667c8.37632,0 15.16667,6.34264 15.16667,14.16667z" fill="#00ff03" stroke="none" stroke-width="0" stroke-linecap="butt"/><path d="M44.40739,83.51576l7,-6.5l11.5,1.75c0,0 6.41978,2.60744 7.71677,5.38238c1.9848,4.24653 3.03323,17.61762 3.03323,17.61762z" fill="#00ff03" stroke="none" stroke-width="0" stroke-linecap="butt"/><path d="M64.15739,63.76576l34,-30.5c0,0 10.88569,-3.64462 14.26172,-1.17435c1.28808,0.94249 5.98269,2.42982 6.97453,5.17931c1.66893,4.62641 -0.73625,10.99504 -0.73625,10.99504l-33.25,28.75c0,0 -2.37927,-7.4453 -5.93006,-9.65933c-3.53244,-2.20258 -15.31994,-3.59067 -15.31994,-3.59067z" fill="#00ff03" stroke="none" stroke-width="0" stroke-linecap="butt"/><path d="M126.86739,68.97861l14.82717,-16.25285l16.25285,14.82716l-14.82717,16.25285z" fill="#00ff03" stroke="none" stroke-width="0" stroke-linecap="butt"/><path d="M101.90739,124.26576c0,0 -8.08891,-8.18113 -8.82429,-12.39989c-0.83521,-4.79147 4.07429,-14.85011 4.07429,-14.85011c0,0 5.59872,-10 9.25,-10c2.54274,0 6.62592,-0.76796 11.11074,1.25445c6.2914,2.83707 12.88927,8.74555 12.88927,8.74555c0,0 13.44487,16.20835 10.16523,21.99328c-2.51495,4.43608 -28.16523,9.75672 -28.16523,9.75672z" fill="#00ff03" stroke="none" stroke-width="0" stroke-linecap="butt"/><path d="M154.19511,97.35742l17.96607,-18.38935l5.9585,5.70602l-18.96606,19.63935z" fill="#00ff03" stroke="none" stroke-width="0" stroke-linecap="butt"/><path d="M134.40739,146.01576l20.5,-12.5l16.98091,6.38599l23.0211,2.09192l5.49799,-0.9779c0,0 6.11907,8.93509 -0.16064,11.01499c-6.76715,2.24135 -39.08936,1.98501 -39.08936,1.98501z" fill="#00ff03" stroke="none" stroke-width="0" stroke-linecap="butt"/><path d="M171.90739,125.51576c0,0 0.59144,-8.40749 3.44564,-11.69775c3.12178,-3.59873 14.55436,-9.05224 14.55436,-9.05224c0,0 6.70194,-1.99944 8.86531,-0.32589c2.2499,1.74049 45.63469,44.32589 45.63469,44.32589l-21.41689,1.22093c0,0 -4.37403,-20.79399 -7.14727,-22.35709c-3.64406,-2.05393 -12.68584,-2.11383 -12.68584,-2.11383z" fill="#00ff03" stroke="none" stroke-width="0" stroke-linecap="butt"/><path d="M213.65739,176.76576l2.75,-10l48.5,-0.5l-11.5,9.25z" fill="#00ff03" stroke="none" stroke-width="0" stroke-linecap="butt"/><path d="M293.86004,176.89076c0,0 1.57355,-10.66489 4.48447,-15.10787c3.35825,-5.12575 14.51553,-13.89213 14.51553,-13.89213c0,0 43.0406,-2.50236 51.62782,-3.00161c2.85469,-0.16597 13.03886,15.66828 13.03886,15.66828l-14.33334,15.33333l-9.662,-9.22449l-38.03829,1.62841l-5.8288,9.49893z" fill="#00ff03" stroke="none" stroke-width="0" stroke-linecap="butt"/><path d="M390.52672,225.55743l-0.66667,-17.66667l8.66667,-4l10.33333,16.66667z" fill="#00ff03" stroke="none" stroke-width="0" stroke-linecap="butt"/><path d="M429.49836,290.55743l-21.92103,-9.69235l-12.41231,-39.64098l19,-2.66666l15.47487,33.19905l11.1918,9.80095z" fill="#00ff03" stroke="none" stroke-width="0" stroke-linecap="butt"/><path d="M444.08169,296.39076l7.83333,-8.5c0,0 12.0026,7.64428 11.57052,14.82755c-0.2509,4.17115 2.12299,12.69724 -1.68358,19.5163c-3.10525,5.56272 -12.55361,9.98948 -12.55361,9.98948c0,0 0.38243,-15.68636 -0.5407,-22.08871c-0.77189,-5.35341 -4.62597,-13.74463 -4.62597,-13.74463z" fill="#00ff03" stroke="none" stroke-width="0" stroke-linecap="butt"/><path d="M428.74836,321.39076c0,0 -3.06841,-0.46983 -4.42844,-1.75258c-2.62969,-2.48028 -10.23823,-12.08075 -10.23823,-12.08075h5.5c0,0 7.29061,4.61192 9.41379,6.61203c1.38119,1.30112 2.08621,4.22131 2.08621,4.22131z" fill="#00ff03" stroke="none" stroke-width="0" stroke-linecap="butt"/><path d="M109.01538,202.97409v-2.33333h83.66667v2.33333z" fill="#00ff03" stroke="none" stroke-width="0" stroke-linecap="butt"/><path d="M242.68205,202.30743v-3.33334h109.33333v3.33334z" fill="#00ff03" stroke="none" stroke-width="0" stroke-linecap="butt"/></g><g fill="none" stroke="#ffffff" stroke-width="1" stroke-linecap="round"><g><path d="M227.74287,251.20992c0.0128,1.44273 0.02615,12.13536 0.02615,12.13536l-6.41341,-0.07202l0.03207,-11.95809"/><path d="M236.74287,251.39742c0.0128,1.44273 0.02615,12.13536 0.02615,12.13536l-6.41341,-0.07202l0.03207,-11.95809"/><path d="M245.18731,251.61964c0.0128,1.44273 0.02615,12.13536 0.02615,12.13536l-6.41341,-0.07202l0.03207,-11.95809"/><path d="M253.96509,251.95297c0.0128,1.44273 0.02615,12.13536 0.02615,12.13536l-6.41341,-0.07202l0.03207,-11.95809"/></g><g><path d="M262.74287,251.95992c0.0128,1.44273 0.02615,12.13536 0.02615,12.13536l-6.41341,-0.07202l0.03207,-11.95809"/><path d="M271.74287,252.14742c0.0128,1.44273 0.02615,12.13536 0.02615,12.13536l-6.41341,-0.07202l0.03207,-11.95809"/><path d="M280.18732,252.36964c0.0128,1.44273 0.02615,12.13536 0.02615,12.13536l-6.41341,-0.07202l0.03207,-11.95809"/><path d="M288.9651,252.70298c0.0128,1.44273 0.02615,12.13536 0.02615,12.13536l-6.41341,-0.07202l0.03207,-11.95809"/></g><g><path d="M297.74287,252.70992c0.0128,1.44273 0.02615,12.13536 0.02615,12.13536l-6.41341,-0.07202l0.03207,-11.95809"/><path d="M306.74287,252.89742c0.0128,1.44273 0.02615,12.13536 0.02615,12.13536l-6.41341,-0.07202l0.03207,-11.95809"/><path d="M315.18732,253.11964c0.0128,1.44273 0.02615,12.13536 0.02615,12.13536l-6.41341,-0.07202l0.03207,-11.95809"/><path d="M323.9651,253.45298c0.0128,1.44273 0.02615,12.13536 0.02615,12.13536l-6.41341,-0.07202l0.03207,-11.95809"/></g><g><path d="M331.99287,253.70992c0.0128,1.44273 0.02615,12.13536 0.02615,12.13536l-6.41341,-0.07202l0.03207,-11.95809"/><path d="M340.99287,253.89742c0.0128,1.44273 0.02615,12.13536 0.02615,12.13536l-6.41341,-0.07202l0.03207,-11.95809"/><path d="M349.43732,254.11964c0.0128,1.44273 0.02615,12.13536 0.02615,12.13536l-6.41341,-0.07202l0.03207,-11.95809"/><path d="M358.2151,254.45298c0.0128,1.44273 0.02615,12.13536 0.02615,12.13536l-6.41341,-0.07202l0.03207,-11.95809"/></g></g><g data-paper-data="{&quot;index&quot;:null}" fill="none" stroke="#ffffff" stroke-width="1" stroke-linecap="round"><g><path d="M352.60399,236.58833c-0.0128,-1.44273 -0.02615,-12.13536 -0.02615,-12.13536l6.41341,0.07202l-0.03207,11.95809"/><path d="M343.60399,236.40083c-0.0128,-1.44273 -0.02615,-12.13536 -0.02615,-12.13536l6.41341,0.07202l-0.03207,11.95809"/><path d="M335.15954,236.17861c-0.0128,-1.44273 -0.02615,-12.13536 -0.02615,-12.13536l6.41341,0.07202l-0.03207,11.95809"/><path d="M326.38176,235.84528c-0.0128,-1.44273 -0.02615,-12.13536 -0.02615,-12.13536l6.41341,0.07202l-0.03207,11.95809"/></g><g><path d="M317.60399,235.83833c-0.0128,-1.44273 -0.02615,-12.13536 -0.02615,-12.13536l6.41341,0.07202l-0.03207,11.95809"/><path d="M308.60399,235.65083c-0.0128,-1.44273 -0.02615,-12.13536 -0.02615,-12.13536l6.41341,0.07202l-0.03207,11.95809"/><path d="M300.15954,235.42861c-0.0128,-1.44273 -0.02615,-12.13536 -0.02615,-12.13536l6.41341,0.07202l-0.03207,11.95809"/><path d="M291.38176,235.09528c-0.0128,-1.44273 -0.02615,-12.13536 -0.02615,-12.13536l6.41341,0.07202l-0.03207,11.95809"/></g><g><path d="M282.60399,235.08833c-0.0128,-1.44273 -0.02615,-12.13536 -0.02615,-12.13536l6.41341,0.07202l-0.03207,11.95809"/><path d="M273.60399,234.90083c-0.0128,-1.44273 -0.02615,-12.13536 -0.02615,-12.13536l6.41341,0.07202l-0.03207,11.95809"/><path d="M265.15954,234.67861c-0.0128,-1.44273 -0.02615,-12.13536 -0.02615,-12.13536l6.41341,0.07202l-0.03207,11.95809"/><path d="M256.38176,234.34528c-0.0128,-1.44273 -0.02615,-12.13536 -0.02615,-12.13536l6.41341,0.07202l-0.03207,11.95809"/></g><g><path d="M248.35399,234.08833c-0.0128,-1.44273 -0.02615,-12.13536 -0.02615,-12.13536l6.41341,0.07202l-0.03207,11.95809"/><path d="M239.35399,233.90083c-0.0128,-1.44273 -0.02615,-12.13536 -0.02615,-12.13536l6.41341,0.07202l-0.03207,11.95809"/><path d="M230.90954,233.67861c-0.0128,-1.44273 -0.02615,-12.13536 -0.02615,-12.13536l6.41341,0.07202l-0.03207,11.95809"/><path d="M222.13176,233.34528c-0.0128,-1.44273 -0.02615,-12.13536 -0.02615,-12.13536l6.41341,0.07202l-0.03207,11.95809"/></g></g><path d="M0.97297,107.96171c0,0 -1.1243,-62.09406 26.5,-86.5c27.6243,-24.40594 90,-10.5 90,-10.5c0,0 -21.34942,-0.14946 -36.95865,11.2418c-21.32482,15.56236 -54.23379,45.86675 -64.54992,54.82417c-16.11906,13.99606 -14.99143,30.93402 -14.99143,30.93402z" fill="#e0e0e0" stroke="none" stroke-width="0" stroke-linecap="butt"/></g></g></svg>