<svg version="1.1" xmlns="http://www.w3.org/2000/svg" xmlns:xlink="http://www.w3.org/1999/xlink" width="315.55417" height="240.07459" viewBox="0,0,315.55417,240.07459"><g transform="translate(-82.53596,-20.75329)"><g data-paper-data="{&quot;isPaintingLayer&quot;:true}" fill-rule="nonzero" stroke-linecap="butt" stroke-linejoin="miter" stroke-miterlimit="10" stroke-dasharray="" stroke-dashoffset="0" style="mix-blend-mode: normal"><path d="M101.11137,255.0403l21.20997,-12.47531l3.2571,5.53758l-21.20997,12.47531z" fill="#a5cee5" stroke="none" stroke-width="0"/><path d="M88.93295,226.09054l14.00332,-4.23733l1.1063,3.65604l-14.00333,4.23734z" fill="#a5cee5" stroke="none" stroke-width="0"/><path d="M83.1038,191.52995l24.52264,-2.03378l0.53099,6.40246l-24.52265,2.03379z" fill="#a5cee5" stroke="none" stroke-width="0"/><path d="M83.13011,160.34684l14.45231,2.2757l-0.59415,3.77326l-14.45231,-2.2757z" data-paper-data="{&quot;index&quot;:null}" fill="#a5cee5" stroke="none" stroke-width="0"/><path d="M90.58574,126.5724l23.2991,7.91503l-2.06648,6.08302l-23.29911,-7.91503z" fill="#a5cee5" stroke="none" stroke-width="0"/><path d="M104.83116,98.06234l12.25627,7.98949l-2.08593,3.19991l-12.25626,-7.98949z" data-paper-data="{&quot;index&quot;:null}" fill="#a5cee5" stroke="none" stroke-width="0"/><path d="M124.28466,70.15042l17.72071,17.07256l-4.45737,4.6266l-17.72072,-17.07257z" fill="#a5cee5" stroke="none" stroke-width="0"/><path d="M148.08602,49.64641l8.72652,11.74291l-3.06589,2.27835l-8.72652,-11.7429z" data-paper-data="{&quot;index&quot;:null}" fill="#a5cee5" stroke="none" stroke-width="0"/><path d="M178.14598,33.07309l10.49444,22.25675l-5.81087,2.73993l-10.49445,-22.25675z" fill="#a5cee5" stroke="none" stroke-width="0"/><path d="M209.78108,24.2659l3.32373,14.24783l-3.71988,0.86777l-3.32373,-14.24783z" data-paper-data="{&quot;index&quot;:null}" fill="#a5cee5" stroke="none" stroke-width="0"/><path d="M243.47642,20.75329l0.11371,24.60657l-6.42437,0.0297l-0.11372,-24.60658z" fill="#a5cee5" stroke="none" stroke-width="0"/><path d="M376.25762,260.82788l-21.20997,-12.47531l3.2571,-5.53758l21.20997,12.47531z" data-paper-data="{&quot;index&quot;:null}" fill="#ff0000" stroke="none" stroke-width="0"/><path d="M390.58685,229.99659l-14.00333,-4.23734l1.1063,-3.65604l14.00332,4.23733z" data-paper-data="{&quot;index&quot;:null}" fill="#ff0000" stroke="none" stroke-width="0"/><path d="M396.99131,198.18242l-24.52265,-2.03379l0.53099,-6.40246l24.52264,2.03378z" data-paper-data="{&quot;index&quot;:null}" fill="#ff0000" stroke="none" stroke-width="0"/><path d="M398.09013,164.3701l-14.45231,2.2757l-0.59415,-3.77326l14.45231,-2.2757z" data-paper-data="{&quot;index&quot;:null}" fill="#a5cee5" stroke="none" stroke-width="0"/><path d="M392.10684,132.90542l-23.29911,7.91503l-2.06648,-6.08302l23.2991,-7.91503z" data-paper-data="{&quot;index&quot;:null}" fill="#a5cee5" stroke="none" stroke-width="0"/><path d="M377.88085,101.51225l-12.25626,7.98949l-2.08593,-3.19991l12.25627,-7.98949z" data-paper-data="{&quot;index&quot;:null}" fill="#a5cee5" stroke="none" stroke-width="0"/><path d="M360.79881,75.02701l-17.72072,17.07257l-4.45737,-4.6266l17.72071,-17.07256z" data-paper-data="{&quot;index&quot;:null}" fill="#a5cee5" stroke="none" stroke-width="0"/><path d="M335.60596,52.17477l-8.72652,11.7429l-3.06589,-2.27835l8.72652,-11.74291z" data-paper-data="{&quot;index&quot;:null}" fill="#a5cee5" stroke="none" stroke-width="0"/><path d="M308.29099,36.06302l-10.49445,22.25675l-5.81087,-2.73993l10.49444,-22.25675z" data-paper-data="{&quot;index&quot;:null}" fill="#a5cee5" stroke="none" stroke-width="0"/><path d="M274.56489,25.38367l-3.32373,14.24783l-3.71988,-0.86777l3.32373,-14.24783z" data-paper-data="{&quot;index&quot;:null}" fill="#a5cee5" stroke="none" stroke-width="0"/><path d="M259.16104,179.4c0,10.45461 -8.50551,18.96104 -18.96104,18.96104c-10.45507,0 -18.96104,-8.50642 -18.96104,-18.96104c0,-10.45507 8.50551,-18.96104 18.96104,-18.96104c10.45553,0 18.96104,8.50642 18.96104,18.96104z" fill="#000000" stroke="none" stroke-width="0"/><text transform="translate(130.39956,244.35714) scale(0.88087,0.5)" font-size="40" xml:space="preserve" fill="#a5cee5" fill-rule="nonzero" stroke="#a5cee5" stroke-width="4" stroke-linecap="butt" stroke-linejoin="miter" stroke-miterlimit="10" stroke-dasharray="" stroke-dashoffset="0" font-family="Sans Serif" font-weight="normal" text-anchor="start" style="mix-blend-mode: normal"><tspan x="0" dy="0">0</tspan></text><text transform="translate(113.39956,196.92857) scale(0.88087,0.5)" font-size="40" xml:space="preserve" fill="#a5cee5" fill-rule="nonzero" stroke="#a5cee5" stroke-width="4" stroke-linecap="butt" stroke-linejoin="miter" stroke-miterlimit="10" stroke-dasharray="" stroke-dashoffset="0" font-family="Sans Serif" font-weight="normal" text-anchor="start" style="mix-blend-mode: normal"><tspan x="0" dy="0">24</tspan></text><text transform="translate(120.82813,153.07143) scale(0.88087,0.5)" font-size="40" xml:space="preserve" fill="#a5cee5" fill-rule="nonzero" stroke="#a5cee5" stroke-width="4" stroke-linecap="butt" stroke-linejoin="miter" stroke-miterlimit="10" stroke-dasharray="" stroke-dashoffset="0" font-family="Sans Serif" font-weight="normal" text-anchor="start" style="mix-blend-mode: normal"><tspan x="0" dy="0">48</tspan></text><text transform="translate(144.39956,110.78571) scale(0.88087,0.5)" font-size="40" xml:space="preserve" fill="#a5cee5" fill-rule="nonzero" stroke="#a5cee5" stroke-width="4" stroke-linecap="butt" stroke-linejoin="miter" stroke-miterlimit="10" stroke-dasharray="" stroke-dashoffset="0" font-family="Sans Serif" font-weight="normal" text-anchor="start" style="mix-blend-mode: normal"><tspan x="0" dy="0">72</tspan></text><text transform="translate(174.14963,78.78571) scale(0.88087,0.5)" font-size="40" xml:space="preserve" fill="#a5cee5" fill-rule="nonzero" stroke="#a5cee5" stroke-width="4" stroke-linecap="butt" stroke-linejoin="miter" stroke-miterlimit="10" stroke-dasharray="" stroke-dashoffset="0" font-family="Sans Serif" font-weight="normal" text-anchor="start" style="mix-blend-mode: normal"><tspan x="0" dy="0">96</tspan></text><text transform="translate(212.28197,68.12169) scale(0.88087,0.5)" font-size="40" xml:space="preserve" fill="#a5cee5" fill-rule="nonzero" stroke="#a5cee5" stroke-width="4" stroke-linecap="butt" stroke-linejoin="miter" stroke-miterlimit="10" stroke-dasharray="" stroke-dashoffset="0" font-family="Sans Serif" font-weight="normal" text-anchor="start" style="mix-blend-mode: normal"><tspan x="0" dy="0">120</tspan></text><text transform="translate(274.39956,79.35714) scale(0.88087,0.5)" font-size="40" xml:space="preserve" fill="#a5cee5" fill-rule="nonzero" stroke="#a5cee5" stroke-width="4" stroke-linecap="butt" stroke-linejoin="miter" stroke-miterlimit="10" stroke-dasharray="" stroke-dashoffset="0" font-family="Sans Serif" font-weight="normal" text-anchor="start" style="mix-blend-mode: normal"><tspan x="0" dy="0">144</tspan></text><text transform="translate(304.01075,111.07143) scale(0.88087,0.5)" font-size="40" xml:space="preserve" fill="#a5cee5" fill-rule="nonzero" stroke="#a5cee5" stroke-width="4" stroke-linecap="butt" stroke-linejoin="miter" stroke-miterlimit="10" stroke-dasharray="" stroke-dashoffset="0" font-family="Sans Serif" font-weight="normal" text-anchor="start" style="mix-blend-mode: normal"><tspan x="0" dy="0">167</tspan></text><text transform="translate(308.7966,154.16402) scale(0.88087,0.5)" font-size="40" xml:space="preserve" fill="#a5cee5" fill-rule="nonzero" stroke="#a5cee5" stroke-width="4" stroke-linecap="butt" stroke-linejoin="miter" stroke-miterlimit="10" stroke-dasharray="" stroke-dashoffset="0" font-family="Sans Serif" font-weight="normal" text-anchor="start" style="mix-blend-mode: normal"><tspan x="0" dy="0">192</tspan></text><text transform="translate(309.33765,197.97883) scale(0.88087,0.5)" font-size="40" xml:space="preserve" fill="#ff0000" fill-rule="nonzero" stroke="#ff0000" stroke-width="4" stroke-linecap="butt" stroke-linejoin="miter" stroke-miterlimit="10" stroke-dasharray="" stroke-dashoffset="0" font-family="Sans Serif" font-weight="normal" text-anchor="start" style="mix-blend-mode: normal"><tspan x="0" dy="0">215</tspan></text><text transform="translate(305.54242,239.35714) scale(0.88087,0.5)" font-size="40" xml:space="preserve" fill="#ff0000" fill-rule="nonzero" stroke="#ff0000" stroke-width="4" stroke-linecap="butt" stroke-linejoin="miter" stroke-miterlimit="10" stroke-dasharray="" stroke-dashoffset="0" font-family="Sans Serif" font-weight="normal" text-anchor="start" style="mix-blend-mode: normal"><tspan x="0" dy="0">239</tspan></text></g></g></svg>