<svg version="1.1" xmlns="http://www.w3.org/2000/svg" xmlns:xlink="http://www.w3.org/1999/xlink" width="545.04505" height="417.41742" viewBox="0,0,545.04505,417.41742"><g transform="translate(32.52252,28.70871)"><g data-paper-data="{&quot;isPaintingLayer&quot;:true}" fill-rule="nonzero" stroke-linejoin="miter" stroke-miterlimit="10" stroke-dasharray="" stroke-dashoffset="0" style="mix-blend-mode: normal"><path d="M-32.52252,388.70871v-417.41742h545.04505v417.41742z" fill="#000000" stroke="none" stroke-width="0" stroke-linecap="butt"/><g><path d="M150.85878,182.84005l-0.22321,-32.32408l92.82321,2.43229c0,0 -4.26002,-8.76528 -14.84443,-8.78583c-32.21664,-0.06254 -157.90147,-0.3138 -157.90147,-0.3138c0,0 -56.17698,-37.74063 -66.58938,-52.18039c-0.5312,-0.73667 -3.54763,-9.42686 -2.37143,-18.00767c1.10592,-8.06804 6.39387,-16.07901 6.39387,-16.07901l49.83293,-43.87529c0,0 12.48697,-5.18574 18.32758,-4.85171c22.40392,1.28133 21.25746,11.86977 36.44495,23.99091c14.17794,11.31544 68.07455,63.88771 77.05692,64.1818c3.90501,0.12785 15.6508,-6.61236 15.6508,-6.61236c0,0 29.4051,-3.56397 41.89275,-5.0775c3.50781,-0.42515 8.7091,0.77614 14.00427,2.52531c7.44255,2.45853 31.898,59.54128 43.75125,88.15564c1.86247,4.49608 10.81584,8.64663 15.91105,14.764c2.70204,3.24411 6.76242,10.19531 7.79152,18.53812c0.93211,7.55653 -0.02653,20.7126 -4.99109,27.23572c-1.7908,2.353 -8.36786,3.57421 -15.54487,4.19497c-3.99461,0.3455 -6.49163,1.40015 -29.77155,-12.26384c-9.4853,-5.56733 -18.2923,-37.14732 -18.2923,-37.14732l-3.24514,-9.91505l-7.25119,-3.02466l-1.0375,-9.27164l0.05237,17.83226l-97.98384,-3.03861" fill="#848484" stroke="#000000" stroke-width="2.5" stroke-linecap="round"/><path d="M81.76328,123.03916c0,0 -2.09532,-1.45386 -2.64892,-3.3071c-0.6854,-2.29439 0.14258,-5.20088 0.14258,-6.71831c0,-2.36539 2.50633,-5.46839 2.50633,-5.46839l5.11985,0.27835l20.87852,8.19537l26.63497,-0.04327l0.45571,6.60765z" fill="#00ff03" stroke="none" stroke-width="0" stroke-linecap="butt"/><path d="M59.03525,115.52012l2.05065,-4.557l6.60765,3.41776l0.22784,4.557z" fill="#00ff03" stroke="none" stroke-width="0" stroke-linecap="butt"/><path d="M36.02242,80.3173c0,5.34812 -4.64156,9.68362 -10.36718,9.68362c-5.72562,0 -10.36717,-4.3355 -10.36717,-9.68362c0,-5.34812 4.64154,-9.68363 10.36717,-9.68363c5.72562,0 10.36718,4.33551 10.36718,9.68363z" fill="#00ff03" stroke="none" stroke-width="0" stroke-linecap="butt"/><path d="M31.60781,58.92789l4.78484,-4.44307l7.86083,1.19622c0,0 4.38824,1.78232 5.27479,3.67911c1.3567,2.90272 2.07337,12.04253 2.07337,12.04253z" fill="#00ff03" stroke="none" stroke-width="0" stroke-linecap="butt"/><path d="M45.10791,45.42777l23.2407,-20.84826c0,0 7.44091,-2.49129 9.7486,-0.80273c0.88047,0.64424 4.08946,1.6609 4.76744,3.54031c1.14079,3.16238 -0.50327,7.51565 -0.50327,7.51565l-22.72803,19.65206c0,0 -1.62635,-5.08923 -4.05349,-6.60264c-2.4146,-1.50558 -10.47195,-2.45441 -10.47195,-2.45441z" fill="#00ff03" stroke="none" stroke-width="0" stroke-linecap="butt"/><path d="M87.97334,48.99102l10.13512,-11.10963l11.10963,10.1351l-10.13512,11.10965z" fill="#00ff03" stroke="none" stroke-width="0" stroke-linecap="butt"/><path d="M70.91191,86.78253c0,0 -5.52917,-5.5922 -6.03184,-8.47594c-0.5709,-3.27521 2.78497,-10.15079 2.78497,-10.15079c0,0 3.827,-6.83551 6.32284,-6.83551c1.73809,0 4.52915,-0.52495 7.59474,0.85747c4.30048,1.93928 8.81047,5.97802 8.81047,5.97802c0,0 9.19023,11.07921 6.94845,15.0335c-1.7191,3.03229 -19.25234,6.66921 -19.25234,6.66921z" fill="#00ff03" stroke="none" stroke-width="0" stroke-linecap="butt"/><path d="M106.65319,68.38935l12.28072,-12.57004l4.07293,3.90034l-12.96425,13.42447z" fill="#00ff03" stroke="none" stroke-width="0" stroke-linecap="butt"/><path d="M93.12729,101.64975l14.01277,-8.54438l11.60729,4.36514l15.73607,1.42993l3.75815,-0.66845c0,0 4.18269,6.10759 -0.10981,7.5293c-4.62568,1.53208 -26.71953,1.35686 -26.71953,1.35686z" fill="#00ff03" stroke="none" stroke-width="0" stroke-linecap="butt"/><path d="M118.76041,87.63698c0,0 0.40426,-5.74694 2.35525,-7.99599c2.13389,-2.4599 9.94864,-6.18766 9.94864,-6.18766c0,0 4.5811,-1.36672 6.05988,-0.22277c1.53793,1.18971 31.19359,30.29896 31.19359,30.29896l-14.63951,0.83456c0,0 -2.98986,-14.21372 -4.88551,-15.28218c-2.4909,-1.40396 -8.67141,-1.4449 -8.67141,-1.4449z" fill="#00ff03" stroke="none" stroke-width="0" stroke-linecap="butt"/><path d="M147.29862,122.6689l1.87977,-6.83551l33.15218,-0.34177l-7.86083,6.32284z" fill="#00ff03" stroke="none" stroke-width="0" stroke-linecap="butt"/><path d="M202.12113,122.75435c0,0 1.0756,-7.28998 3.06537,-10.32699c2.29554,-3.50371 9.92209,-9.49597 9.92209,-9.49597c0,0 29.4204,-1.7105 35.29019,-2.05176c1.95132,-0.11345 8.9127,10.71005 8.9127,10.71005l-9.79756,10.4811l-6.60447,-6.3054l-26.00107,1.1131l-3.98429,6.493z" fill="#00ff03" stroke="none" stroke-width="0" stroke-linecap="butt"/><path d="M268.19763,156.02044l-0.45571,-12.07605l5.92411,-2.7342l7.06335,11.39251z" fill="#00ff03" stroke="none" stroke-width="0" stroke-linecap="butt"/><path d="M294.83667,200.45118l-14.98412,-6.6252l-8.48444,-27.09659l12.98745,-1.8228l10.57784,22.6932l7.65015,6.69944z" fill="#00ff03" stroke="none" stroke-width="0" stroke-linecap="butt"/><path d="M304.80512,204.43856l5.35448,-5.81017c0,0 8.20437,5.22525 7.90903,10.13537c-0.17149,2.85119 1.45118,8.67918 -1.15081,13.34035c-2.12259,3.8024 -8.58102,6.82831 -8.58102,6.82831c0,0 0.2614,-10.72241 -0.36959,-15.09874c-0.52763,-3.65932 -3.16209,-9.39515 -3.16209,-9.39515z" fill="#00ff03" stroke="none" stroke-width="0" stroke-linecap="butt"/><path d="M294.32402,221.5273c0,0 -2.09741,-0.32114 -3.02706,-1.19796c-1.79752,-1.6954 -6.99833,-8.25781 -6.99833,-8.25781h3.75952c0,0 4.9835,3.15249 6.43478,4.51966c0.94412,0.88939 1.42603,2.88548 1.42603,2.88548z" fill="#00ff03" stroke="none" stroke-width="0" stroke-linecap="butt"/><path d="M75.7706,140.58361v-1.59494h57.19034v1.59494z" fill="#00ff03" stroke="none" stroke-width="0" stroke-linecap="butt"/><path d="M167.13842,140.1279v-2.27851h74.73479v2.27851z" fill="#00ff03" stroke="none" stroke-width="0" stroke-linecap="butt"/></g><text transform="translate(38.5,290.75) scale(1.2584,1.2584)" font-size="40" xml:space="preserve" fill="#ffffff" fill-rule="nonzero" stroke="none" stroke-width="1" stroke-linecap="butt" stroke-linejoin="miter" stroke-miterlimit="10" stroke-dasharray="" stroke-dashoffset="0" font-family="Sans Serif" font-weight="normal" text-anchor="start" style="mix-blend-mode: normal"><tspan x="0" dy="0">meihan</tspan></text><text transform="translate(209.5,342.5) scale(0.5,0.5)" font-size="40" xml:space="preserve" fill="#ffffff" fill-rule="nonzero" stroke="none" stroke-width="1" stroke-linecap="butt" stroke-linejoin="miter" stroke-miterlimit="10" stroke-dasharray="" stroke-dashoffset="0" font-family="Sans Serif" font-weight="normal" text-anchor="start" style="mix-blend-mode: normal"><tspan x="0" dy="0">tap to start</tspan></text></g></g></svg>